<svg width="134" height="48" viewBox="0 0 134 48" fill="none" xmlns="http://www.w3.org/2000/svg">
<path d="M27.718 45.0801V40.4824L23.7794 38.1836L19.8408 40.4824V45.0801L23.7794 47.3787L27.718 45.0801Z" fill="#016DB5"/>
<path d="M13.6304 37.7268V33.8596L10.3171 31.9258L7.00391 33.8596V37.7268L10.3171 39.6606L13.6304 37.7268Z" fill="#016DB5"/>
<path d="M13.6304 14.053V10.1857L10.3171 8.25195L7.00391 10.1857V14.053L10.3171 15.9868L13.6304 14.053Z" fill="#016DB5"/>
<path d="M27.718 7.64036V3.04299L23.7794 0.744141L19.8408 3.04299V7.64036L23.7794 9.93921L27.718 7.64036Z" fill="#016DB5"/>
<path d="M17.7805 7.71269V4.47986L15.011 2.86328L12.2412 4.47986V7.71269L15.011 9.32927L17.7805 7.71269Z" fill="#016DB5"/>
<path d="M19.3855 1.66538V0.555127L18.4346 0L17.4834 0.555127V1.66538L18.4346 2.22051L19.3855 1.66538Z" fill="#016DB5"/>
<path d="M13.4793 2.77476V1.6645L12.5281 1.10938L11.5771 1.6645V2.77476L12.5281 3.32988L13.4793 2.77476Z" fill="#016DB5"/>
<path d="M9.71365 6.38804V5.27778L8.76243 4.72266L7.81152 5.27778V6.38804L8.76243 6.94317L9.71365 6.38804Z" fill="#016DB5"/>
<path d="M5.79404 9.88413V8.77388L4.84282 8.21875L3.8916 8.77388V9.88413L4.84282 10.4393L5.79404 9.88413Z" fill="#016DB5"/>
<path d="M4.84255 14.2904V13.1801L3.89133 12.625L2.94043 13.1801V14.2904L3.89133 14.8455L4.84255 14.2904Z" fill="#016DB5"/>
<path d="M2.23709 18.9056V17.7954L1.28587 17.2402L0.334961 17.7954V18.9056L1.28587 19.4607L2.23709 18.9056Z" fill="#016DB5"/>
<path d="M1.90213 24.5111V23.4008L0.951222 22.8457L0 23.4008V24.5111L0.951222 25.0662L1.90213 24.5111Z" fill="#016DB5"/>
<path d="M2.21201 30.1166V29.0063L1.26079 28.4512L0.30957 29.0063V30.1166L1.26079 30.6717L2.21201 30.1166Z" fill="#016DB5"/>
<path d="M4.73904 34.7572V33.6469L3.78782 33.0918L2.83691 33.6469V34.7572L3.78782 35.3123L4.73904 34.7572Z" fill="#016DB5"/>
<path d="M5.69053 39.2416V38.1313L4.73931 37.5762L3.78809 38.1313V39.2416L4.73931 39.7967L5.69053 39.2416Z" fill="#016DB5"/>
<path d="M9.68858 42.7103V41.6L8.73735 41.0449L7.78613 41.6V42.7103L8.73735 43.2654L9.68858 42.7103Z" fill="#016DB5"/>
<path d="M13.4532 46.3353V45.2251L12.502 44.6699L11.5508 45.2251V46.3353L12.502 46.8904L13.4532 46.3353Z" fill="#016DB5"/>
<path d="M19.3601 47.4447V46.3344L18.4089 45.7793L17.458 46.3344V47.4447L18.4089 47.9998L19.3601 47.4447Z" fill="#016DB5"/>
<path d="M9.99147 19.9666V16.7338L7.22165 15.1172L4.45215 16.7338V19.9666L7.22165 21.5832L9.99147 19.9666Z" fill="#016DB5"/>
<path d="M9.99147 31.1775V27.9447L7.22165 26.3281L4.45215 27.9447V31.1775L7.22165 32.7941L9.99147 31.1775Z" fill="#016DB5"/>
<path d="M8.27399 25.143V22.7703L6.24133 21.584L4.20898 22.7703V25.143L6.24133 26.3294L8.27399 25.143Z" fill="#016DB5"/>
<path d="M17.7805 43.5372V40.3041L15.011 38.6875L12.2412 40.3041V43.5372L15.011 45.1538L17.7805 43.5372Z" fill="#016DB5"/>
<path d="M18.9839 9.13867L15.3356 11.2677V13.7678V14.9953L18.9811 17.123L19.5721 16.7583L19.5693 16.1823L20.7631 15.4772L21.9643 16.1697L21.9716 17.5677L20.7778 18.2731L19.5766 17.5802L19.5747 17.2453L19.1904 17.4826V17.9347L19.4788 17.7664L20.6764 18.4651V19.863L19.4788 20.5623L18.2811 19.863V18.4654L18.7775 18.1755V17.4861L15.1435 15.3648L11.7451 17.3484V21.0281L13.2753 20.1349L16.3177 21.9104L17.3219 21.3242L18.5196 22.0235V23.4211L17.5385 23.9935L18.5196 24.566V25.9639L17.3219 26.6629L16.3431 26.0917L13.2753 27.8823L11.8547 27.053L11.7451 27.1169V30.9819L15.1095 32.9456L18.4545 30.9931L18.5822 30.1574L18.1388 29.8986V28.5007L19.3362 27.8017L20.5338 28.5007V29.8986L19.3362 30.5976L18.9655 30.3812L18.8731 30.9864L19.4321 31.1916L19.434 30.7835L20.6351 30.0909L21.829 30.796L21.8217 32.1939L20.6209 32.8868L19.427 32.1814L19.4295 31.6346L18.6635 31.3531L15.3356 33.2952V36.7496L18.9839 38.8789L22.6319 36.7496V15.5263V13.7678V11.2677L18.9839 9.13867Z" fill="#016DB5"/>
<path d="M16.5371 25.7218L17.3219 26.18L18.1067 25.7218V24.8055L17.3219 24.3477L16.5371 24.8058V25.7218Z" fill="#016DB5"/>
<path d="M13.2749 20.6172L10.3691 22.3131V25.7052L13.2749 27.401L16.1238 25.7382V24.5663L17.1049 23.9939L16.1238 23.4214V22.28L13.2749 20.6172Z" fill="#016DB5"/>
<path d="M18.1067 22.2645L17.3219 21.8066L16.5371 22.2645V23.1808L17.3219 23.639L18.1067 23.1808V22.2645Z" fill="#016DB5"/>
<path d="M18.6934 19.6222L19.4785 20.0804L20.2633 19.6222V18.7062L19.4785 18.248L18.6934 18.7062V19.6222Z" fill="#016DB5"/>
<path d="M21.5571 17.329L21.552 16.413L20.765 15.959L19.9824 16.4213L19.9872 17.3373L20.7745 17.7913L21.5571 17.329Z" fill="#016DB5"/>
<path d="M21.4104 31.9506L21.4152 31.0346L20.6329 30.5723L19.8456 31.0263L19.8408 31.9423L20.6234 32.4046L21.4104 31.9506Z" fill="#016DB5"/>
<path d="M20.1207 29.6574V28.7414L19.3356 28.2832L18.5508 28.7414V29.6577L19.3356 30.1155L20.1207 29.6574Z" fill="#016DB5"/>
<path d="M33.6885 37.7268V33.8596L37.0017 31.9258L40.315 33.8596V37.7268L37.0017 39.6606L33.6885 37.7268Z" fill="#E28100"/>
<path d="M33.6885 14.053V10.1857L37.0017 8.25195L40.315 10.1857V14.053L37.0017 15.9868L33.6885 14.053Z" fill="#E28100"/>
<path d="M29.5381 7.71269V4.47986L32.3079 2.86328L35.0774 4.47986V7.71269L32.3079 9.32927L29.5381 7.71269Z" fill="#E28100"/>
<path d="M27.9326 1.66538V0.555127L28.8838 0L29.8348 0.555127V1.66538L28.8838 2.22051L27.9326 1.66538Z" fill="#E28100"/>
<path d="M33.8389 2.77476V1.6645L34.7901 1.10938L35.7413 1.6645V2.77476L34.7901 3.32988L33.8389 2.77476Z" fill="#E28100"/>
<path d="M37.6045 6.38804V5.27778L38.5557 4.72266L39.5069 5.27778V6.38804L38.5557 6.94317L37.6045 6.38804Z" fill="#E28100"/>
<path d="M41.5244 9.88413V8.77388L42.4756 8.21875L43.4269 8.77388V9.88413L42.4756 10.4393L41.5244 9.88413Z" fill="#E28100"/>
<path d="M42.4756 14.2904V13.1801L43.4268 12.625L44.378 13.1801V14.2904L43.4268 14.8455L42.4756 14.2904Z" fill="#E28100"/>
<path d="M45.0811 18.9056V17.7954L46.0323 17.2402L46.9835 17.7954V18.9056L46.0323 19.4607L45.0811 18.9056Z" fill="#E28100"/>
<path d="M45.416 24.5111V23.4008L46.3669 22.8457L47.3181 23.4008V24.5111L46.3669 25.0662L45.416 24.5111Z" fill="#E28100"/>
<path d="M45.1064 30.1166V29.0063L46.0577 28.4512L47.0089 29.0063V30.1166L46.0577 30.6717L45.1064 30.1166Z" fill="#E28100"/>
<path d="M42.5791 34.7572V33.6469L43.5303 33.0918L44.4816 33.6469V34.7572L43.5303 35.3123L42.5791 34.7572Z" fill="#E28100"/>
<path d="M41.6279 39.2416V38.1313L42.5792 37.5762L43.5304 38.1313V39.2416L42.5792 39.7967L41.6279 39.2416Z" fill="#E28100"/>
<path d="M37.6299 42.7103V41.6L38.5811 41.0449L39.5323 41.6V42.7103L38.5811 43.2654L37.6299 42.7103Z" fill="#E28100"/>
<path d="M33.8643 46.3353V45.2251L34.8155 44.6699L35.7667 45.2251V46.3353L34.8155 46.8904L33.8643 46.3353Z" fill="#E28100"/>
<path d="M27.959 47.4447V46.3344L28.9102 45.7793L29.8614 46.3344V47.4447L28.9102 47.9998L27.959 47.4447Z" fill="#E28100"/>
<path d="M37.3271 19.9666V16.7338L40.097 15.1172L42.8665 16.7338V19.9666L40.097 21.5832L37.3271 19.9666Z" fill="#E28100"/>
<path d="M37.3271 31.1775V27.9447L40.097 26.3281L42.8665 27.9447V31.1775L40.097 32.7941L37.3271 31.1775Z" fill="#E28100"/>
<path d="M39.0439 25.143V22.7703L41.0766 21.584L43.1093 22.7703V25.143L41.0766 26.3294L39.0439 25.143Z" fill="#E28100"/>
<path d="M29.5381 43.5372V40.3041L32.3079 38.6875L35.0774 40.3041V43.5372L32.3079 45.1538L29.5381 43.5372Z" fill="#E28100"/>
<path d="M28.3345 9.13867L31.9828 11.2677V13.7678V14.9953L28.3374 17.123L27.7463 16.7583L27.7492 16.1823L26.5553 15.4772L25.3541 16.1697L25.3471 17.5677L26.541 18.2731L27.7419 17.5802L27.7438 17.2453L28.1284 17.4826V17.9347L27.84 17.7664L26.6423 18.4651V19.863L27.84 20.5623L29.0374 19.863V18.4654L28.541 18.1755V17.4861L32.175 15.3648L35.5733 17.3484V21.0281L34.0431 20.1349L31.0011 21.9104L29.9965 21.3242L28.7992 22.0235V23.4211L29.7799 23.9935L28.7992 24.566V25.9639L29.9965 26.6629L30.9754 26.0917L34.0431 27.8823L35.4641 27.053L35.5733 27.1169V30.9819L32.209 32.9456L28.864 30.9931L28.7366 30.1574L29.18 29.8986V28.5007L27.9823 27.8017L26.7846 28.5007V29.8986L27.9823 30.5976L28.3533 30.3812L28.4454 30.9864L27.8867 31.1916L27.8845 30.7835L26.6833 30.0909L25.4894 30.796L25.4967 32.1939L26.6976 32.8868L27.8918 32.1814L27.8889 31.6346L28.6553 31.3531L31.9828 33.2952V36.7496L28.3345 38.8789L24.6865 36.7496V15.5263V13.7678V11.2677L28.3345 9.13867Z" fill="#E28100"/>
<path d="M30.7818 25.7218L29.9967 26.18L29.2119 25.7218V24.8055L29.9967 24.3477L30.7818 24.8058V25.7218Z" fill="#E28100"/>
<path d="M34.0429 20.6172L36.9486 22.3131V25.7052L34.0429 27.401L31.194 25.7382V24.5663L30.2129 23.9939L31.194 23.4214V22.28L34.0429 20.6172Z" fill="#E28100"/>
<path d="M29.2119 22.2645L29.9967 21.8066L30.7818 22.2645V23.1808L29.9967 23.639L29.2119 23.1808V22.2645Z" fill="#E28100"/>
<path d="M28.6246 19.6222L27.8398 20.0804L27.0547 19.6222V18.7062L27.8398 18.248L28.6246 18.7062V19.6222Z" fill="#E28100"/>
<path d="M25.7607 17.329L25.7655 16.413L26.5529 15.959L27.3351 16.4213L27.3303 17.3373L26.543 17.7913L25.7607 17.329Z" fill="#E28100"/>
<path d="M25.9081 31.9506L25.9033 31.0346L26.6859 30.5723L27.4729 31.0263L27.478 31.9423L26.6951 32.4046L25.9081 31.9506Z" fill="#E28100"/>
<path d="M27.1973 29.6574V28.7414L27.9824 28.2832L28.7672 28.7414V29.6577L27.9824 30.1155L27.1973 29.6574Z" fill="#E28100"/>
<path d="M77.2847 34.738L75.9838 30.7934H67.3431L66.0422 34.738H61.4277L69.0156 12.8223H74.3116L81.9303 34.738H77.2847ZM68.7059 26.7544H74.6524L71.6793 17.8004L68.7059 26.7544Z" fill="#016DB5"/>
<path d="M99.3478 34.738H94.7333L91.3887 29.9791L88.0129 34.738H83.3984L89.0661 26.7543L83.6462 19.084H88.2606L91.3887 23.4983L94.5167 19.084H99.1004L93.6808 26.7232L99.3478 34.738Z" fill="#016DB5"/>
<path d="M114.021 32.7818C112.431 34.3788 110.491 35.177 108.199 35.177C105.907 35.177 103.971 34.3788 102.392 32.7818C100.812 31.1852 100.022 29.2286 100.022 26.9117C100.022 24.5949 100.812 22.638 102.392 21.0413C103.971 19.4447 105.907 18.6465 108.199 18.6465C110.491 18.6465 112.431 19.4447 114.021 21.0413C115.611 22.6383 116.406 24.5949 116.406 26.9117C116.406 29.2286 115.611 31.1855 114.021 32.7818ZM105.211 30.011C106.005 30.8249 107.001 31.232 108.199 31.232C109.396 31.232 110.398 30.8249 111.203 30.011C112.008 29.1971 112.411 28.1639 112.411 26.9117C112.411 25.6596 112.008 24.6261 111.203 23.8121C110.398 22.9982 109.396 22.5911 108.199 22.5911C107.001 22.5911 106.005 22.9982 105.211 23.8121C104.415 24.6261 104.018 25.6596 104.018 26.9117C104.018 28.1639 104.415 29.1971 105.211 30.011Z" fill="#016DB5"/>
<path d="M128.147 18.6465C129.84 18.6465 131.239 19.2206 132.344 20.3681C133.448 21.5162 134.001 23.1029 134.001 25.1269V34.7387H130.005V25.6281C130.005 24.5846 129.726 23.7865 129.169 23.2329C128.611 22.6801 127.868 22.4033 126.939 22.4033C125.907 22.4033 125.081 22.7273 124.462 23.3736C123.842 24.0212 123.532 24.9914 123.532 26.2853V34.7384H119.537V19.0847H123.532V20.8378C124.503 19.3772 126.041 18.6465 128.147 18.6465Z" fill="#016DB5"/>
<path d="M61.92 45.304H64.6669V45.7249H61.4785V39.834H61.9197V45.304H61.92Z" fill="#016DB5"/>
<path d="M73.2994 44.9303C72.7169 45.5224 72.0061 45.8181 71.1683 45.8181C70.3301 45.8181 69.6199 45.5224 69.0371 44.9303C68.4546 44.3386 68.1631 43.6217 68.1631 42.7801C68.1631 41.9386 68.4543 41.222 69.0371 40.6299C69.6199 40.0382 70.3301 39.7422 71.1683 39.7422C72.0061 39.7422 72.7166 40.0382 73.2994 40.6299C73.8822 41.222 74.1734 41.9386 74.1734 42.7801C74.1734 43.6217 73.8822 44.3383 73.2994 44.9303ZM69.3493 44.6272C69.8461 45.1352 70.4524 45.3888 71.1683 45.3888C71.8841 45.3888 72.4904 45.1348 72.9872 44.6272C73.4836 44.1193 73.7323 43.5038 73.7323 42.7801C73.7323 42.0564 73.4839 41.441 72.9872 40.933C72.4904 40.4251 71.8841 40.1715 71.1683 40.1715C70.4524 40.1715 69.8461 40.4254 69.3493 40.933C68.8526 41.4406 68.6042 42.0564 68.6042 42.7801C68.6046 43.5038 68.8526 44.1196 69.3493 44.6272Z" fill="#016DB5"/>
<path d="M84.1631 42.9821V43.2094C84.1631 43.9443 83.9049 44.563 83.3888 45.0649C82.8727 45.567 82.1927 45.8181 81.3494 45.8181C80.4614 45.8181 79.7287 45.5249 79.1519 44.9387C78.5745 44.3524 78.2861 43.6329 78.2861 42.7801C78.2861 41.9274 78.572 41.2079 79.1437 40.6216C79.715 40.0353 80.4395 39.7422 81.3164 39.7422C81.8493 39.7422 82.3391 39.8713 82.7856 40.1294C83.2322 40.3875 83.5777 40.7327 83.822 41.1645L83.4307 41.4002C83.2363 41.03 82.9492 40.7327 82.569 40.5083C82.1888 40.2838 81.7712 40.1718 81.3161 40.1718C80.5614 40.1718 79.9412 40.4229 79.4555 40.925C78.9699 41.4272 78.7273 42.0455 78.7273 42.7805C78.7273 43.5157 78.9715 44.1341 79.46 44.6362C79.9482 45.1384 80.5783 45.3895 81.3497 45.3895C82.0323 45.3895 82.5846 45.2016 83.0064 44.8257C83.4281 44.45 83.6641 43.9758 83.714 43.4033H81.2414V42.9827H84.1631V42.9821Z" fill="#016DB5"/>
<path d="M88.6006 39.834H89.0417V45.7249H88.6006V39.834Z" fill="#016DB5"/>
<path d="M96.5166 45.8181C95.6397 45.8181 94.9152 45.5249 94.3438 44.9387C93.7722 44.3524 93.4863 43.6329 93.4863 42.7801C93.4863 41.9274 93.7722 41.2079 94.3438 40.6216C94.9152 40.0353 95.6397 39.7422 96.5166 39.7422C97.0495 39.7422 97.5377 39.8697 97.9817 40.1249C98.4254 40.3801 98.7696 40.724 99.0139 41.1558L98.6226 41.3832C98.4282 41.0188 98.1424 40.7256 97.7651 40.5038C97.3878 40.2822 96.9714 40.1715 96.5162 40.1715C95.7616 40.1715 95.1413 40.4225 94.6557 40.9247C94.1701 41.4268 93.9275 42.0452 93.9275 42.7801C93.9275 43.5154 94.1701 44.1338 94.6557 44.6359C95.1413 45.1381 95.7613 45.3891 96.5162 45.3891C96.9714 45.3891 97.3903 45.2768 97.7733 45.0527C98.1564 44.8285 98.4447 44.528 98.6391 44.1521L99.0304 44.3794C98.7919 44.817 98.4479 45.1663 97.9982 45.427C97.5485 45.6877 97.0549 45.8181 96.5166 45.8181Z" fill="#016DB5"/>
</svg>
